<?xml version="1.0" standalone="no"?>
<!DOCTYPE svg PUBLIC "-//W3C//DTD SVG 20010904//EN"
 "http://www.w3.org/TR/2001/REC-SVG-20010904/DTD/svg10.dtd">
<svg version="1.0" xmlns="http://www.w3.org/2000/svg"
 width="485.000000pt" height="298.000000pt" viewBox="0 0 485.000000 298.000000"
 preserveAspectRatio="xMidYMid meet">
<metadata>
Created by potrace 1.16, written by Peter Selinger 2001-2019
</metadata>
<g transform="translate(0.000000,298.000000) scale(0.100000,-0.100000)"
fill="#ffffff" stroke="none">
<path d="M405 2974 c-16 -2 -57 -7 -90 -10 l-60 -5 -45 -66 -45 -65 -3 -904
-3 -904 1188 -1 c653 0 1215 -4 1248 -9 35 -4 64 -4 70 2 6 6 11 325 13 908 3
874 2 900 -17 937 -22 44 -52 73 -101 99 -33 18 -80 19 -1080 20 -575 1 -1058
0 -1075 -2z"/>
<path d="M2920 2521 c-19 -11 -46 -34 -60 -53 l-25 -33 -3 -762 -3 -763 -892
-1 c-491 -1 -903 -4 -917 -8 l-25 -8 25 -10 c14 -6 43 -16 66 -22 60 -16 167
-90 207 -143 41 -54 77 -124 77 -149 0 -10 5 -21 10 -24 6 -3 10 -21 10 -39 0
-64 -43 -61 824 -64 435 -2 824 1 863 5 44 6 76 6 82 0 12 -12 27 18 34 69 6
52 59 165 99 209 51 59 167 129 243 148 68 17 214 10 270 -12 86 -35 130 -59
146 -80 31 -39 7 -47 -39 -13 -23 16 -56 35 -74 42 -18 6 -42 15 -53 20 -82
31 -206 42 -220 20 -3 -5 -15 -10 -26 -10 -10 0 -27 -4 -37 -10 -9 -5 -34 -17
-55 -26 -47 -21 -154 -135 -187 -200 -23 -45 -25 -60 -25 -181 0 -92 4 -136
13 -145 6 -6 12 -20 12 -30 0 -10 5 -18 10 -18 6 0 10 -6 10 -13 0 -8 11 -24
25 -37 14 -13 25 -29 25 -36 0 -7 15 -21 33 -32 17 -12 50 -34 72 -50 22 -15
61 -34 85 -42 56 -16 207 -25 223 -12 7 5 26 12 42 16 86 21 210 130 249 221
10 22 22 49 27 60 5 11 10 38 12 60 1 22 6 46 10 52 4 7 3 21 -3 32 -5 11 -10
32 -10 48 0 33 -19 87 -41 123 -31 49 -59 101 -59 111 0 16 30 10 37 -9 4 -9
19 -33 34 -52 31 -40 46 -80 30 -80 -6 0 -11 -5 -11 -11 0 -6 9 -8 20 -4 15 5
20 2 20 -12 0 -11 4 -23 9 -29 5 -5 11 -25 13 -44 3 -33 5 -35 52 -43 52 -8
500 -4 551 5 17 3 36 1 44 -5 10 -9 19 -5 38 17 24 28 24 32 21 178 -4 184 1
178 -140 178 -93 0 -98 1 -103 23 -3 12 -6 175 -7 361 -2 261 -6 340 -15 344
-7 2 -13 12 -13 23 0 10 -4 19 -10 19 -5 0 -10 6 -10 13 -1 6 -14 28 -30 47
-17 19 -30 38 -30 44 0 5 -11 24 -25 42 -14 18 -25 36 -25 39 0 4 -15 25 -32
48 -18 22 -44 59 -58 82 -51 85 -66 108 -92 142 -16 20 -28 42 -28 49 0 8 -4
14 -8 14 -4 0 -18 19 -30 43 -12 23 -38 62 -57 87 -19 25 -38 52 -42 60 -24
55 -107 119 -223 173 -47 22 -105 45 -130 50 -62 14 -632 20 -689 8 -29 -6
-50 -6 -55 0 -13 12 -15 11 -56 -10z m857 -293 c23 -15 50 -39 60 -53 10 -14
29 -41 43 -59 14 -19 32 -44 40 -56 8 -13 25 -35 38 -50 12 -15 22 -34 22 -42
0 -8 9 -23 20 -33 12 -11 31 -36 42 -57 12 -21 25 -38 30 -38 4 0 8 -9 8 -19
0 -11 5 -23 10 -26 6 -4 10 -55 10 -121 l0 -114 -435 0 -435 0 0 351 0 351
253 -4 252 -3 42 -27z m-22 -1636 c22 -15 52 -45 68 -67 25 -36 27 -46 24
-107 -5 -72 -19 -98 -84 -152 -28 -24 -47 -30 -102 -34 -61 -4 -72 -2 -110 22
-24 15 -50 40 -59 57 -10 16 -20 29 -24 29 -5 0 -8 11 -8 24 0 14 -4 28 -10
31 -5 3 -10 19 -10 36 0 16 5 29 10 29 6 0 10 7 10 17 0 25 57 108 82 121 32
16 55 20 118 21 44 0 63 -5 95 -27z"/>
<path d="M50 888 c-11 -13 -23 -34 -26 -48 -3 -14 -10 -37 -16 -52 -6 -16 -9
-84 -6 -163 3 -121 6 -137 25 -156 11 -12 31 -20 44 -20 13 1 40 1 59 0 64 -4
285 -2 315 2 26 4 31 9 36 44 3 22 24 78 46 125 31 66 53 97 98 138 73 67 101
81 233 118 6 2 12 7 12 12 0 15 -165 22 -491 22 -306 0 -308 0 -329 -22z"/>
<path d="M845 848 c-16 -6 -44 -17 -62 -24 -17 -8 -36 -14 -41 -14 -8 0 -78
-51 -105 -78 -30 -29 -78 -102 -83 -127 -4 -16 -12 -33 -18 -37 -16 -11 -15
-273 1 -290 7 -6 13 -20 13 -30 0 -10 5 -18 10 -18 6 0 10 -6 10 -13 0 -8 10
-22 21 -33 12 -10 25 -29 30 -41 5 -13 15 -23 23 -23 9 0 20 -9 26 -20 6 -11
25 -27 43 -35 18 -8 39 -19 47 -24 54 -35 234 -55 278 -32 9 6 28 12 42 15 29
6 112 57 153 95 32 29 75 90 96 136 7 17 17 37 21 46 15 31 22 163 10 209 -6
25 -14 56 -17 70 -3 14 -9 27 -13 30 -4 3 -14 19 -23 35 -21 42 -86 115 -111
126 -12 5 -42 22 -67 38 -66 41 -220 62 -284 39z m125 -228 c10 0 32 -7 51
-16 143 -70 161 -235 36 -335 -33 -27 -50 -33 -106 -37 -61 -4 -72 -2 -110 22
-24 15 -50 40 -59 57 -10 16 -20 29 -24 29 -5 0 -8 11 -8 24 0 14 -4 28 -10
31 -5 3 -10 19 -10 36 0 16 5 29 10 29 6 0 10 11 10 23 0 54 90 137 148 137
12 0 24 5 28 11 4 8 9 8 17 0 6 -6 18 -11 27 -11z"/>
</g>
</svg>
