<?xml version="1.0" standalone="no"?>
<!DOCTYPE svg PUBLIC "-//W3C//DTD SVG 20010904//EN"
 "http://www.w3.org/TR/2001/REC-SVG-20010904/DTD/svg10.dtd">
<svg version="1.0" xmlns="http://www.w3.org/2000/svg"
 width="486.000000pt" height="512.000000pt" viewBox="0 0 486.000000 512.000000"
 preserveAspectRatio="xMidYMid meet">
<metadata>
Created by potrace 1.16, written by Peter Selinger 2001-2019
</metadata>
<g transform="translate(0.000000,512.000000) scale(0.100000,-0.100000)"
fill="#ffffff" stroke="none">
<path d="M2320 5091 c-203 -88 -2105 -938 -2155 -963 -80 -40 -121 -72 -143
-111 -16 -30 -17 -110 -17 -1267 l0 -1235 30 -45 c24 -35 66 -67 210 -158 385
-243 2013 -1243 2073 -1272 89 -45 119 -47 186 -17 80 37 303 166 1081 627
1308 774 1240 730 1264 826 8 30 11 417 11 1264 0 1336 4 1255 -60 1318 -43
43 -146 92 -950 450 -1339 595 -1379 612 -1433 612 -17 -1 -61 -13 -97 -29z
m168 -435 c53 -22 347 -153 1287 -573 204 -91 372 -167 374 -170 3 -2 -2 -10
-10 -18 -17 -17 -298 -172 -485 -267 l-121 -62 -144 78 c-328 175 -1454 802
-1454 809 0 8 471 225 493 227 1 0 28 -11 60 -24z m-341 -744 c356 -197 728
-403 826 -457 l178 -98 -253 -134 c-139 -74 -302 -159 -361 -189 l-108 -55
-177 92 c-484 252 -1540 817 -1547 829 -5 7 180 95 590 279 110 49 201 90 202
90 1 1 293 -160 650 -357z m2293 -1306 l0 -964 -852 -505 c-469 -277 -874
-517 -900 -532 l-48 -27 0 1019 0 1018 442 235 c999 532 1353 720 1356 720 1
0 2 -434 2 -964z m-3467 671 c282 -151 675 -361 874 -468 l361 -194 7 -120 c8
-148 2 -1861 -6 -1870 -4 -3 -337 192 -740 433 -404 242 -805 481 -891 533
l-158 94 0 906 c0 499 3 921 6 938 5 22 11 30 21 27 7 -3 244 -129 526 -279z"/>
</g>
</svg>
