<?xml version="1.0" standalone="no"?>
<!DOCTYPE svg PUBLIC "-//W3C//DTD SVG 20010904//EN"
 "http://www.w3.org/TR/2001/REC-SVG-20010904/DTD/svg10.dtd">
<svg version="1.0" xmlns="http://www.w3.org/2000/svg"
 width="549.000000pt" height="281.000000pt" viewBox="0 0 549.000000 281.000000"
 preserveAspectRatio="xMidYMid meet">
<metadata>
Created by potrace 1.16, written by Peter Selinger 2001-2019
</metadata>
<g transform="translate(0.000000,281.000000) scale(0.100000,-0.100000)"
fill="#ffffff" stroke="none">
<path d="M1193 2761 c-26 -21 -79 -71 -117 -109 l-70 -71 -72 68 c-88 84 -107
92 -142 58 -33 -34 -25 -52 62 -144 l65 -69 -51 -52 -52 -51 -78 74 c-43 41
-87 75 -97 75 -11 0 -29 -12 -40 -26 -26 -34 -19 -48 67 -136 l65 -67 -43 -48
c-25 -26 -47 -49 -51 -51 -4 -2 -38 23 -76 56 -104 89 -123 97 -149 57 -23
-35 -11 -60 64 -137 l65 -68 -38 -46 c-21 -25 -44 -48 -52 -51 -9 -4 -35 14
-66 44 -103 99 -134 112 -163 68 -22 -34 -12 -57 67 -139 l68 -73 -49 -48 -49
-48 -76 71 c-58 56 -82 72 -105 72 -31 0 -50 -22 -50 -59 0 -11 32 -54 71 -96
80 -87 82 -71 -18 -176 -93 -98 -104 -144 -54 -220 17 -24 52 -66 80 -93 l50
-49 -70 -78 c-38 -44 -69 -85 -69 -92 0 -18 43 -57 62 -57 9 0 49 31 90 70
l75 69 42 -43 43 -44 -61 -67 c-73 -81 -83 -106 -50 -141 12 -13 28 -24 34
-24 6 0 46 32 89 71 l77 72 44 -43 44 -43 -63 -68 c-79 -83 -87 -103 -53 -136
33 -34 53 -26 136 53 l68 63 43 -44 44 -44 -62 -64 c-69 -73 -84 -108 -57
-137 29 -32 52 -24 125 45 38 36 75 65 83 65 7 0 28 -18 46 -40 l33 -41 -61
-65 c-71 -75 -83 -106 -53 -136 30 -30 64 -17 139 54 l64 62 44 -44 44 -43
-63 -68 c-74 -78 -85 -102 -60 -130 32 -35 63 -24 136 48 l67 66 60 -56 c63
-58 106 -75 155 -63 45 11 159 121 705 677 576 585 563 570 546 649 -5 21 -38
64 -96 126 -101 106 -101 100 -24 174 26 25 53 57 61 71 12 24 11 30 -7 53
-34 44 -61 35 -140 -46 l-71 -73 -48 55 -48 55 62 65 c79 81 87 103 53 138
-33 33 -51 25 -141 -58 l-66 -62 -49 54 -49 53 69 71 c47 49 69 80 69 96 0 28
-28 58 -53 58 -9 0 -51 -32 -93 -72 l-75 -72 -51 51 -51 51 71 78 c40 43 72
83 72 89 0 14 -52 65 -67 65 -6 0 -46 -32 -88 -72 l-76 -71 -51 51 -52 51 66
70 c76 80 87 104 62 132 -34 38 -71 25 -143 -51 l-67 -70 -64 66 c-157 160
-207 177 -297 105z m163 -280 c21 -15 238 -228 481 -473 383 -386 442 -450
449 -482 14 -78 47 -39 -561 -656 -181 -184 -346 -345 -365 -357 -48 -31 -89
-29 -136 6 -62 45 -913 908 -924 936 -16 42 -12 69 15 106 37 50 767 798 858
880 91 81 119 87 183 40z"/>
<path d="M1253 2021 c-75 -60 -489 -483 -497 -508 -4 -12 -2 -33 5 -45 14 -26
480 -500 521 -530 18 -12 35 -17 49 -13 25 8 486 471 524 526 19 26 25 44 20
59 -8 25 -401 428 -488 501 -32 27 -64 49 -72 49 -7 0 -35 -17 -62 -39z"/>
<path d="M3900 2616 l0 -54 74 -11 c136 -20 243 -77 338 -180 92 -99 157 -252
158 -368 l0 -43 55 0 55 0 0 48 c0 134 -85 337 -184 441 -123 129 -318 221
-468 221 -27 0 -28 -1 -28 -54z"/>
<path d="M3900 2378 l0 -56 47 -7 c144 -21 256 -138 287 -297 l11 -59 50 3 50
3 -2 55 c-3 110 -84 256 -178 322 -62 44 -149 79 -212 85 l-53 6 0 -55z"/>
<path d="M2403 2204 c-8 -4 -8 -14 3 -39 8 -19 14 -50 14 -68 l0 -35 55 -4
c40 -3 62 -11 81 -29 32 -29 54 -78 54 -117 0 -33 -42 -100 -83 -132 l-27 -22
51 -56 c78 -85 100 -123 106 -184 11 -111 21 -99 -566 -693 -196 -198 -385
-390 -421 -428 l-64 -67 165 0 166 0 22 58 c60 162 216 279 387 290 76 4 88 2
138 -22 105 -51 165 -158 153 -273 l-6 -53 449 0 449 0 12 43 c27 101 127 210
246 269 60 30 76 33 153 33 98 0 147 -15 196 -58 59 -51 84 -113 84 -208 l0
-82 130 5 c153 6 168 13 214 101 21 41 29 71 30 114 l1 58 -79 22 c-44 13 -82
25 -84 28 -3 3 88 5 201 5 114 0 207 -1 207 -2 0 -2 -20 -79 -45 -173 -24 -93
-42 -171 -40 -173 3 -3 10 0 17 5 436 335 668 516 686 535 l23 25 -128 105
c-253 207 -518 418 -525 418 -13 0 -10 -20 22 -160 17 -73 30 -143 30 -156 l0
-24 -792 1 c-436 1 -784 3 -773 5 11 2 250 13 530 24 566 23 835 37 840 42 2
2 -4 22 -14 44 -23 50 -75 102 -161 158 -37 25 -79 58 -93 75 -14 17 -115 171
-223 342 -133 209 -211 323 -241 348 -57 51 -144 91 -218 102 -61 9 -1310 11
-1332 3z m1503 -393 c48 -22 68 -47 161 -201 117 -194 145 -248 138 -269 -9
-28 -79 -33 -435 -29 -233 2 -311 6 -329 17 -23 13 -23 16 -18 105 9 163 38
344 59 371 19 25 20 25 201 25 156 0 188 -3 223 -19z"/>
<path d="M2285 601 c-65 -17 -108 -43 -164 -96 -106 -101 -144 -225 -102 -335
12 -30 21 -55 21 -56 0 0 -269 -4 -597 -8 -810 -9 -1257 -26 -1236 -47 32 -32
1312 -53 2718 -45 1193 7 1723 22 1698 47 -5 5 -106 14 -224 19 -118 5 -260
12 -316 16 l-103 6 60 58 c104 100 145 233 100 324 -26 54 -75 98 -131 116
-51 17 -146 3 -216 -31 -62 -30 -134 -103 -169 -170 -24 -47 -27 -65 -27 -137
1 -73 4 -88 28 -124 l27 -41 -77 6 c-43 4 -323 7 -622 7 l-545 0 56 63 c77 88
96 133 96 231 0 69 -3 85 -25 116 -14 20 -44 47 -66 59 -44 25 -134 36 -184
22z m74 -166 c32 -16 51 -59 44 -97 -14 -72 -123 -143 -182 -118 -41 17 -66
71 -52 113 19 52 41 78 84 98 51 23 69 23 106 4z m1615 -14 c31 -31 28 -89 -7
-135 -101 -132 -273 -50 -187 89 44 71 145 95 194 46z"/>
</g>
</svg>
